<svg width="25" height="20" viewBox="0 0 25 20" fill="none" xmlns="http://www.w3.org/2000/svg">
<path d="M9.83003 0.771846L2.48077 6.76208C1.10683 7.88188 0.419853 8.44182 0.166649 9.10302C-0.0555506 9.68366 -0.0555506 10.3163 0.166649 10.8969C0.419853 11.5581 1.10683 12.1181 2.48077 13.2379L9.83003 19.2281C10.4535 19.7363 10.7653 19.9905 11.0301 19.9995C11.2601 20.0074 11.481 19.9164 11.6274 19.7535C11.7959 19.566 11.7959 19.1836 11.7959 18.4187V14.6416C15.3807 14.6416 19.1671 15.6974 21.9318 17.5715C23.3712 18.5472 24.0909 19.0351 24.365 19.0159C24.6322 18.997 24.8017 18.9015 24.9404 18.6911C25.0826 18.4754 24.957 17.8014 24.7057 16.4532C23.0743 7.69926 16.5044 5.35838 11.7959 5.35838V1.58133C11.7959 0.8164 11.7959 0.433936 11.6274 0.246434C11.481 0.0835307 11.2601 -0.00741828 11.0301 0.00047441C10.7653 0.00955845 10.4535 0.263655 9.83003 0.771846Z" fill="#3D405B"/>
</svg>
