<svg width="256" height="256" viewBox="0 0 256 256" fill="none" xmlns="http://www.w3.org/2000/svg">
<path d="M247.574 206.906L221.231 180.56C232.574 161.715 238.402 140.424 238.387 119.189C238.402 88.7644 226.708 58.1215 203.473 34.9008C180.255 11.6725 149.623 -0.0314028 119.194 9.95949e-05C88.7642 -0.0394034 58.1322 11.6725 34.9135 34.9008C11.6794 58.1215 -0.0154364 88.7644 6.33751e-05 119.189C-0.0314361 149.621 11.6794 180.264 34.9135 203.484C58.1242 226.712 88.7642 238.416 119.194 238.393C140.428 238.417 161.709 232.58 180.56 221.243L206.895 247.573C218.13 258.809 236.34 258.809 247.574 247.573C258.809 236.346 258.809 218.134 247.574 206.906ZM170.935 170.935C156.584 185.28 137.998 192.35 119.194 192.374C100.39 192.35 81.8113 185.279 67.4525 170.935C53.1162 156.582 46.0464 137.995 46.0229 119.189C46.0464 100.383 53.1167 81.7953 67.452 67.4427C81.8033 53.1137 100.389 46.0426 119.193 46.0116C137.997 46.0431 156.583 53.1137 170.934 67.4427C185.27 81.7953 192.333 100.383 192.372 119.189C192.333 137.995 185.271 156.582 170.935 170.935Z" fill="#3D405B"/>
</svg>
