<svg width="25" height="25" viewBox="0 0 25 25" fill="none" xmlns="http://www.w3.org/2000/svg">
<path fill-rule="evenodd" clip-rule="evenodd" d="M14.8405 0.1903C14.3533 5.58794e-08 13.7355 0 12.5 0C11.2645 0 10.6467 5.58794e-08 10.1595 0.1903C9.50972 0.444038 8.99353 0.930725 8.72441 1.54329C8.60155 1.82293 8.55348 2.14813 8.53466 2.62249C8.50701 3.3196 8.12783 3.96486 7.48706 4.31366C6.84628 4.66245 6.06399 4.64942 5.40985 4.32345C4.9647 4.10162 4.64195 3.97828 4.32366 3.93878C3.62643 3.85223 2.92128 4.03036 2.36336 4.434C1.94492 4.73673 1.63603 5.24112 1.01829 6.24991C0.400536 7.25871 0.091668 7.7631 0.0228259 8.25614C-0.0689766 8.9135 0.119971 9.57832 0.548089 10.1044C0.743496 10.3445 1.01811 10.5462 1.44434 10.7987C2.07093 11.17 2.4741 11.8024 2.47406 12.5C2.47402 13.1976 2.07086 13.8299 1.44434 14.201C1.01805 14.4536 0.743378 14.6555 0.547957 14.8956C0.119839 15.4216 -0.0690949 16.0864 0.0226945 16.7438C0.0915365 17.2368 0.400418 17.7413 1.01815 18.75C1.6359 19.7587 1.94478 20.2632 2.36323 20.5659C2.92115 20.9695 3.6263 21.1476 4.32353 21.0611C4.64181 21.0216 4.96453 20.8983 5.40964 20.6765C6.06383 20.3505 6.84617 20.3375 7.48699 20.6862C8.1278 21.0351 8.507 21.6804 8.53466 22.3776C8.55348 22.8519 8.60155 23.1771 8.72441 23.4567C8.99353 24.0692 9.50972 24.556 10.1595 24.8097C10.6467 25 11.2645 25 12.5 25C13.7355 25 14.3533 25 14.8405 24.8097C15.4902 24.556 16.0064 24.0692 16.2755 23.4567C16.3984 23.1771 16.4466 22.8519 16.4654 22.3775C16.493 21.6804 16.8721 21.0351 17.5129 20.6862C18.1537 20.3374 18.936 20.3505 19.5902 20.6765C20.0354 20.8983 20.358 21.0215 20.6763 21.061C21.3735 21.1476 22.0787 20.9695 22.6366 20.5659C23.0551 20.2631 23.3639 19.7588 23.9817 18.7499C24.5994 17.7411 24.9083 17.2368 24.9772 16.7438C25.0689 16.0864 24.88 15.4215 24.4519 14.8955C24.2564 14.6554 23.9818 14.4535 23.5555 14.201C22.9291 13.8299 22.5259 13.1975 22.5259 12.4999C22.5259 11.8022 22.9291 11.1701 23.5555 10.799C23.9819 10.5464 24.2566 10.3446 24.4521 10.1044C24.8801 9.57841 25.0691 8.91359 24.9773 8.25621C24.9084 7.76319 24.5996 7.25879 23.9818 6.25C23.3641 5.24121 23.0552 4.73681 22.6367 4.43409C22.0788 4.03045 21.3737 3.85231 20.6764 3.93886C20.3581 3.97836 20.0354 4.1017 19.5904 4.3235C18.9362 4.64949 18.1538 4.66253 17.513 4.3137C16.8722 3.96489 16.493 3.31957 16.4652 2.62242C16.4464 2.1481 16.3984 1.82291 16.2755 1.54329C16.0064 0.930725 15.4902 0.444038 14.8405 0.1903ZM12.5 16.25C14.6967 16.25 16.4773 14.5711 16.4773 12.5C16.4773 10.4289 14.6967 8.75 12.5 8.75C10.3033 8.75 8.52257 10.4289 8.52257 12.5C8.52257 14.5711 10.3033 16.25 12.5 16.25Z" fill="#3D405B"/>
</svg>
